<svg width="170" height="35" viewBox="0 0 170 35" fill="none" xmlns="http://www.w3.org/2000/svg">
<path d="M52.9982 25.0522C54.9262 25.0522 57.1112 24.3838 58.448 22.9957L56.4429 21.0162C55.7231 21.7617 54.2064 22.1988 53.0496 22.1988C50.8388 22.1988 49.4764 21.0677 49.2708 19.4995H59.1677C59.6562 14.2811 57.0084 11.659 52.7668 11.659C48.6538 11.659 46.0317 14.4353 46.0317 18.2913C46.0317 22.353 48.6281 25.0522 52.9982 25.0522ZM56.1601 16.9032H49.3222C49.7849 15.2579 51.173 14.4353 52.8697 14.4353C54.6691 14.4353 55.9544 15.2579 56.1601 16.9032ZM67.4456 25.1036C68.8594 25.0779 70.8388 24.3581 71.5586 22.8671L71.7129 24.718H74.6691V12.0446H71.6615L71.5586 13.7926C70.8388 12.533 69.2193 11.7361 67.5227 11.7361C63.821 11.7104 60.9162 13.9983 60.9162 18.3684C60.9162 22.8157 63.6924 25.1293 67.4456 25.1036ZM67.8055 22.2245C65.7233 22.2245 64.0523 20.7849 64.0523 18.3684C64.0523 15.952 65.7233 14.5381 67.8055 14.5381C72.7411 14.5381 72.7411 22.2245 67.8055 22.2245ZM80.4791 24.718V18.0343C80.4791 15.6949 81.9958 14.8209 83.641 14.8209C84.6693 14.8209 85.2605 15.1037 85.9032 15.6435L87.3171 12.9186C86.623 12.2245 85.3634 11.7104 84.0523 11.7104C82.767 11.7104 81.456 11.9417 80.4791 13.5099L80.2478 12.0446H77.343V24.718H80.4791ZM91.6361 24.718V6.74896H88.5256V24.718H91.6361ZM96.3665 30.0393C97.1377 30.0393 97.8832 29.9365 98.5772 29.7052C99.3227 29.4738 99.9654 29.1139 100.531 28.6512C101.533 27.8543 102.073 26.6203 102.587 25.4121L102.665 25.2322C102.716 25.0779 107.215 13.7412 107.832 12.1731H104.747L101.251 21.0162L97.5233 12.1731H94.4128L99.734 24.8209V24.8723L99.6569 25.0779C99.5798 25.2836 99.5027 25.5149 99.3741 25.6949C99.1942 26.0034 98.9628 26.2347 98.7058 26.4661C98.0117 27.0059 97.112 27.2373 95.9809 27.1602V30.0393H96.3665ZM117.138 25.0008C120.865 25.0008 123.667 22.533 123.667 18.3684C123.667 13.9983 120.917 11.7361 117.215 11.7361C115.878 11.7361 113.796 12.4559 113.05 13.7669V6.74896H109.914V24.718H112.845L113.05 22.97C114.027 24.4867 115.595 25.0008 117.138 25.0008ZM116.932 22.0959C114.953 22.0959 113.256 20.6564 113.256 18.3684C113.256 16.1577 114.953 14.6667 116.932 14.6667C118.937 14.6667 120.531 16.0805 120.531 18.3684C120.531 20.5792 118.937 22.0959 116.932 22.0959ZM132.408 25.0522C134.336 25.0522 136.521 24.3838 137.857 22.9957L135.852 21.0162C135.133 21.7617 133.616 22.1988 132.459 22.1988C130.248 22.1988 128.886 21.0677 128.68 19.4995H138.577C139.066 14.2811 136.418 11.659 132.176 11.659C128.063 11.659 125.441 14.4353 125.441 18.2913C125.441 22.353 128.038 25.0522 132.408 25.0522ZM135.57 16.9032H128.732C129.194 15.2579 130.583 14.4353 132.279 14.4353C134.079 14.4353 135.364 15.2579 135.57 16.9032ZM146.855 25.1036C148.269 25.0779 150.248 24.3581 150.968 22.8671L151.122 24.718H154.079V12.0446H151.071L150.968 13.7926C150.248 12.533 148.629 11.7361 146.932 11.7361C143.23 11.7104 140.326 13.9983 140.326 18.3684C140.326 22.8157 143.102 25.1293 146.855 25.1036ZM147.215 22.2245C145.133 22.2245 143.462 20.7849 143.462 18.3684C143.462 15.952 145.133 14.5381 147.215 14.5381C152.151 14.5381 152.151 22.2245 147.215 22.2245ZM159.786 24.718V18.2399C159.786 16.3119 161.097 14.6924 163.025 14.6924C165.03 14.6924 166.084 16.1577 166.084 18.0857V24.718H169.22V18.06C169.22 14.0754 166.829 11.8389 163.847 11.8389C162.254 11.8389 160.968 12.4816 159.683 13.7412L159.477 12.0189H156.675V24.718H159.786Z" fill="#632F7F"/>
<path d="M8.69173 15.3367L11.2061 16.8027C15.9932 20.0002 21.4489 21.1378 27.4228 21.6409C31.3028 21.9677 34.67 20.5245 35.5439 21.1388C37.4906 22.5073 36.6328 25.1053 32.9706 28.9327C29.403 32.8868 24.0959 34.9613 18.9369 34.9994L18.7807 34.9999C6.99946 34.9999 0 27.2337 0 15.5474C0 15.4878 0.00045785 15.4167 0.00137355 15.3343C0.00444367 15.058 0.201198 14.8218 0.472425 14.7689C4.24894 14.0323 6.98871 14.2215 8.69173 15.3367ZM18.9423 -6.10352e-05C23.998 -6.10352e-05 28.0259 0.992252 30.9184 3.05452C33.7305 4.66381 35.7389 7.13888 36.3572 10.0031C36.4882 10.4841 36.5573 10.984 36.5573 11.497C36.5573 11.5536 36.5573 11.8086 36.5573 11.88C36.5573 13.6334 36.0426 15.2892 35.1293 16.7527L35.1022 16.7463C34.028 18.5623 30.8078 19.0541 25.4416 18.2217L25.2784 18.1961L25.3136 18.162C25.2526 18.1527 25.1916 18.143 25.1306 18.1327C18.2972 16.9796 13.211 14.2687 11.4098 13.027C9.60856 11.7854 5.63124 10.9901 0.631034 11.5616L0.418596 11.5863C2.15238 4.68111 8.99939 -6.10352e-05 18.9423 -6.10352e-05Z" fill="#632F7F"/>
</svg>
